<svg xmlns="http://www.w3.org/2000/svg" width="32" height="32" viewBox="0 0 32 32">
  <defs>
    <linearGradient id="glass" x1="3" y1="2" x2="20" y2="28" gradientUnits="userSpaceOnUse">
      <stop stop-color="#ffffff"/>
      <stop offset="0.38" stop-color="#bdf7ff"/>
      <stop offset="1" stop-color="#39cfe7"/>
    </linearGradient>
    <linearGradient id="edge" x1="4" y1="3" x2="19" y2="27" gradientUnits="userSpaceOnUse">
      <stop stop-color="#eaffff"/>
      <stop offset="1" stop-color="#12a9cf"/>
    </linearGradient>
  </defs>
  <path d="M3 2.5 4.1 23l5.4-5.1 5.2 10.7 4.7-2.3-5.1-10.4 7.4-.9Z" fill="#052236" stroke="#04263b" stroke-width="3" stroke-linejoin="round"/>
  <path d="M3 2.5 4.1 23l5.4-5.1 5.2 10.7 4.7-2.3-5.1-10.4 7.4-.9Z" fill="url(#glass)" fill-opacity="0.86" stroke="url(#edge)" stroke-width="1.2" stroke-linejoin="round"/>
  <path d="M5.3 6.2 6 17.7l3-2.8 5.5 10.8 1.6-.8-5.8-11.5 6.5-.1Z" fill="#ffffff" fill-opacity="0.28"/>
  <circle cx="24.6" cy="6.1" r="2.5" fill="#bff8ff" fill-opacity="0.25" stroke="#dffcff" stroke-width="0.8"/>
  <circle cx="27.8" cy="11.4" r="1.35" fill="#bff8ff" fill-opacity="0.2" stroke="#dffcff" stroke-width="0.65"/>
  <circle cx="23.9" cy="5.4" r="0.7" fill="#ffffff"/>
</svg>
